<svg xmlns="http://www.w3.org/2000/svg" xmlns:xlink="http://www.w3.org/1999/xlink" width="2000" zoomAndPan="magnify" viewBox="0 0 1500 1499.999933" height="2000" preserveAspectRatio="xMidYMid meet" version="1.0"><path fill="#ffffff" d="M 439.191406 5.15625 C 359.421875 8.902344 304.945312 21.691406 257.324219 40.34375 C 208.007812 59.5625 166.25 85.28125 124.707031 127.039062 C 83.089844 168.792969 57.511719 210.621094 38.507812 260.007812 C 20.066406 307.773438 7.558594 362.246094 4.027344 442.085938 C 0.496094 521.996094 -0.28125 547.503906 0.0703125 751.128906 C 0.425781 954.6875 1.34375 980.261719 5.15625 1060.246094 C 8.972656 1140.015625 21.691406 1194.417969 40.34375 1242.109375 C 59.5625 1291.425781 85.28125 1333.113281 127.039062 1374.730469 C 168.792969 1416.34375 210.621094 1441.851562 260.007812 1460.929688 C 307.703125 1479.367188 362.246094 1491.945312 442.015625 1495.40625 C 521.996094 1498.941406 547.503906 1499.71875 751.058594 1499.292969 C 954.6875 1498.941406 980.191406 1498.023438 1060.175781 1494.207031 C 1139.945312 1490.390625 1194.347656 1477.601562 1242.039062 1459.019531 C 1291.355469 1439.730469 1333.113281 1414.082031 1374.660156 1372.328125 C 1416.203125 1330.570312 1441.78125 1288.742188 1460.855469 1239.355469 C 1479.296875 1191.664062 1491.875 1137.117188 1495.335938 1057.417969 C 1498.800781 977.4375 1499.648438 951.859375 1499.292969 748.304688 C 1498.941406 544.746094 1497.949219 519.242188 1494.207031 439.261719 C 1490.390625 359.421875 1477.671875 305.015625 1459.019531 257.324219 C 1439.730469 208.007812 1414.082031 166.320312 1372.328125 124.707031 C 1330.570312 83.160156 1288.742188 57.511719 1239.355469 38.507812 C 1191.664062 20.066406 1137.117188 7.488281 1057.347656 4.027344 C 977.367188 0.496094 951.789062 -0.28125 748.234375 0.0703125 C 544.675781 0.425781 519.171875 1.34375 439.191406 5.15625 M 447.949219 1360.386719 C 374.894531 1357.207031 335.1875 1345.054688 308.691406 1334.878906 C 273.644531 1321.3125 248.703125 1305.0625 222.351562 1278.992188 C 196.066406 1252.777344 179.816406 1227.835938 166.109375 1192.933594 C 155.863281 1166.507812 143.5 1126.871094 140.039062 1053.746094 C 136.292969 974.753906 135.445312 951.011719 135.09375 750.847656 C 134.738281 550.753906 135.445312 527.011719 138.90625 447.949219 C 142.015625 374.894531 154.238281 335.1875 164.414062 308.761719 C 177.980469 273.714844 194.160156 248.773438 220.300781 222.421875 C 246.515625 196.136719 271.457031 179.886719 306.429688 166.179688 C 332.855469 155.863281 372.492188 143.570312 445.546875 140.109375 C 524.613281 136.363281 548.28125 135.585938 748.445312 135.164062 C 948.609375 134.738281 972.351562 135.445312 1051.414062 138.976562 C 1124.46875 142.15625 1164.179688 154.238281 1190.601562 164.484375 C 1225.648438 178.050781 1250.660156 194.160156 1276.941406 220.371094 C 1303.226562 246.585938 1319.546875 271.457031 1333.183594 306.5 C 1343.5 332.855469 1355.792969 372.5625 1359.253906 445.546875 C 1363 524.613281 1363.847656 548.351562 1364.203125 748.445312 C 1364.554688 948.609375 1363.847656 972.351562 1360.386719 1051.34375 C 1357.207031 1124.398438 1345.054688 1164.179688 1334.878906 1190.601562 C 1321.3125 1225.578125 1305.132812 1250.589844 1278.921875 1276.871094 C 1252.707031 1303.085938 1227.839844 1319.40625 1192.792969 1333.113281 C 1166.4375 1343.429688 1126.730469 1355.722656 1053.746094 1359.183594 C 974.683594 1362.929688 951.011719 1363.777344 750.777344 1364.132812 C 550.683594 1364.484375 526.941406 1363.777344 447.878906 1360.316406 M 1059.113281 348.964844 C 1059.183594 398.632812 1099.597656 438.835938 1149.199219 438.695312 C 1198.871094 438.625 1239.070312 398.28125 1239 348.609375 C 1238.929688 298.941406 1198.515625 258.738281 1148.847656 258.808594 C 1099.175781 258.878906 1058.972656 299.292969 1059.042969 348.894531 M 364.71875 750.421875 C 365.144531 963.023438 537.824219 1134.996094 750.351562 1134.574219 C 962.953125 1134.148438 1134.996094 961.539062 1134.574219 748.941406 C 1134.148438 536.410156 961.46875 364.367188 748.871094 364.71875 C 536.339844 365.144531 364.296875 537.824219 364.71875 750.421875 M 499.742188 750.140625 C 499.527344 612.152344 611.164062 500.023438 749.152344 499.8125 C 887.140625 499.527344 999.269531 611.164062 999.550781 749.222656 C 999.835938 887.210938 888.128906 999.339844 750.140625 999.550781 C 612.152344 999.835938 500.023438 888.128906 499.8125 750.140625 " fill-opacity="1" fill-rule="nonzero"/></svg>