<svg xmlns="http://www.w3.org/2000/svg" xmlns:xlink="http://www.w3.org/1999/xlink" width="2000" zoomAndPan="magnify" viewBox="0 0 1500 1499.999933" height="2000" preserveAspectRatio="xMidYMid meet" version="1.0"><path fill="#f1582c" d="M 749.753906 -0.195312 C 1163.964844 -0.195312 1499.703125 335.539062 1499.703125 749.753906 C 1499.703125 1163.964844 1163.964844 1499.703125 749.753906 1499.703125 C 335.539062 1499.703125 -0.195312 1163.964844 -0.195312 749.753906 C -0.195312 335.539062 335.539062 -0.195312 749.753906 -0.195312 Z M 749.160156 321.789062 C 863.277344 321.789062 873.480469 484.0625 884.964844 533.40625 L 616.511719 533.40625 C 616.511719 439.449219 659.152344 321.789062 749.160156 321.789062 Z M 844.742188 770.605469 L 870.523438 746.351562 C 838.039062 708.148438 802.398438 693.214844 754.386719 693.214844 C 674.925781 693.214844 642.390625 738.613281 642.390625 786.625 C 642.390625 907.9375 835.425781 861.996094 835.425781 963.6875 C 835.425781 998.785156 805.996094 1022.496094 752.316406 1022.496094 C 707.953125 1022.496094 676.945312 1003.960938 653.238281 973.496094 L 625.878906 998.785156 C 659.941406 1038.515625 700.707031 1054.535156 751.332031 1054.535156 C 820.984375 1054.535156 873.628906 1020.472656 873.628906 956.984375 C 873.628906 834.09375 680.59375 872.839844 680.59375 780.957031 C 680.59375 748.421875 703.8125 725.207031 755.421875 725.207031 C 793.625 725.207031 822.558594 741.175781 844.742188 770.605469 Z M 562.832031 533.40625 L 366.988281 533.40625 C 332.238281 533.40625 318.683594 557.507812 323.21875 596.105469 C 326.816406 626.519531 329.625 666.59375 332.089844 697.796875 L 341.75 849.226562 C 342.441406 863.03125 344.214844 860.710938 344.90625 874.515625 L 360.632812 1105.109375 C 361.074219 1168.894531 395.875 1228.246094 458.625 1228.246094 L 1036.59375 1228.246094 C 1149.375 1228.246094 1137.988281 1089.039062 1146.664062 1009.824219 L 1175.601562 596.5 C 1176.535156 578.851562 1180.035156 570.175781 1171.605469 553.121094 C 1165.691406 541.09375 1151.644531 533.40625 1134.488281 533.40625 L 935.492188 533.40625 C 935.492188 426.042969 874.613281 271.261719 758.625 271.261719 L 733.386719 271.261719 C 676.207031 271.261719 626.765625 321.292969 607 359.644531 C 580.332031 411.5 562.832031 470.0625 562.832031 533.40625 Z M 562.832031 533.40625 " fill-opacity="1" fill-rule="evenodd"/></svg>